<?xml version="1.0" encoding="utf-8" ?>
<svg baseProfile="full" height="1024" version="1.1" width="1024" xmlns="http://www.w3.org/2000/svg" xmlns:ev="http://www.w3.org/2001/xml-events" xmlns:xlink="http://www.w3.org/1999/xlink"><defs /><path d="M 494,78 L 493,79 L 461,79 L 460,80 L 448,80 L 447,81 L 437,81 L 436,82 L 430,82 L 429,83 L 424,83 L 423,84 L 417,84 L 416,85 L 411,85 L 410,86 L 405,86 L 404,87 L 400,87 L 399,88 L 395,88 L 394,89 L 391,89 L 390,90 L 387,90 L 386,91 L 382,91 L 381,92 L 378,92 L 377,93 L 374,93 L 373,94 L 370,94 L 369,95 L 366,95 L 365,96 L 362,96 L 361,97 L 359,97 L 358,98 L 355,98 L 354,99 L 352,99 L 351,100 L 349,100 L 348,101 L 346,101 L 345,102 L 342,102 L 341,103 L 340,103 L 339,104 L 337,104 L 336,105 L 334,105 L 333,106 L 331,106 L 330,107 L 328,107 L 327,108 L 326,108 L 325,109 L 323,109 L 322,110 L 321,110 L 320,111 L 318,111 L 317,112 L 316,112 L 315,113 L 314,113 L 313,114 L 311,114 L 310,115 L 309,115 L 308,116 L 307,116 L 306,117 L 305,117 L 304,118 L 302,118 L 301,119 L 300,119 L 299,120 L 298,120 L 297,121 L 296,121 L 295,122 L 294,122 L 293,123 L 292,123 L 291,124 L 290,124 L 289,125 L 287,125 L 286,126 L 285,126 L 284,127 L 283,127 L 282,128 L 281,128 L 280,129 L 279,129 L 277,131 L 276,131 L 275,132 L 274,132 L 273,133 L 272,133 L 271,134 L 270,134 L 268,136 L 267,136 L 266,137 L 265,137 L 263,139 L 262,139 L 261,140 L 260,140 L 259,141 L 258,141 L 257,142 L 256,142 L 254,144 L 253,144 L 252,145 L 251,145 L 249,147 L 248,147 L 246,149 L 245,149 L 243,151 L 242,151 L 240,153 L 239,153 L 237,155 L 236,155 L 233,158 L 232,158 L 230,160 L 229,160 L 226,163 L 225,163 L 219,169 L 218,169 L 205,182 L 204,182 L 180,206 L 180,207 L 175,212 L 175,213 L 171,217 L 171,218 L 167,222 L 167,223 L 164,226 L 164,227 L 161,230 L 161,231 L 159,233 L 159,234 L 157,236 L 157,237 L 155,239 L 155,240 L 154,241 L 154,242 L 152,244 L 152,245 L 151,246 L 151,247 L 149,249 L 149,250 L 148,251 L 148,252 L 147,253 L 147,254 L 146,255 L 146,256 L 144,258 L 144,259 L 143,260 L 143,261 L 142,262 L 142,263 L 141,264 L 141,265 L 140,266 L 140,268 L 139,269 L 139,270 L 138,271 L 138,272 L 137,273 L 137,274 L 136,275 L 136,277 L 135,278 L 135,279 L 134,280 L 134,282 L 133,283 L 133,285 L 132,286 L 132,288 L 131,289 L 131,291 L 130,292 L 130,296 L 129,297 L 129,301 L 128,302 L 128,308 L 127,309 L 127,316 L 126,317 L 126,334 L 127,335 L 127,340 L 128,341 L 128,344 L 129,345 L 129,348 L 130,349 L 130,352 L 131,353 L 131,355 L 132,356 L 132,357 L 133,358 L 132,359 L 126,359 L 125,360 L 120,360 L 119,361 L 116,361 L 115,362 L 112,362 L 111,363 L 109,363 L 108,364 L 106,364 L 105,365 L 103,365 L 102,366 L 101,366 L 100,367 L 98,367 L 97,368 L 96,368 L 95,369 L 94,369 L 93,370 L 92,370 L 91,371 L 90,371 L 88,373 L 87,373 L 84,376 L 83,376 L 76,383 L 76,384 L 74,386 L 74,387 L 72,389 L 72,390 L 71,391 L 71,392 L 69,394 L 69,396 L 68,397 L 68,398 L 67,399 L 67,401 L 66,402 L 66,404 L 65,405 L 65,407 L 64,408 L 64,423 L 65,424 L 65,427 L 66,428 L 66,430 L 67,431 L 67,432 L 68,433 L 68,434 L 69,435 L 69,437 L 71,439 L 71,440 L 77,446 L 78,446 L 81,449 L 82,449 L 83,450 L 84,450 L 85,451 L 87,451 L 88,452 L 89,452 L 90,453 L 92,453 L 93,454 L 97,454 L 98,455 L 119,455 L 120,454 L 121,455 L 121,456 L 119,458 L 119,459 L 118,460 L 118,461 L 117,462 L 117,463 L 116,464 L 116,466 L 115,467 L 115,470 L 114,471 L 114,473 L 113,474 L 113,482 L 112,483 L 113,484 L 113,499 L 114,500 L 114,505 L 115,506 L 115,509 L 116,510 L 116,512 L 117,513 L 117,515 L 118,516 L 118,517 L 119,518 L 119,520 L 120,521 L 120,522 L 121,523 L 121,524 L 123,526 L 123,527 L 125,529 L 125,530 L 128,533 L 128,534 L 129,535 L 129,536 L 128,537 L 127,537 L 124,540 L 123,540 L 120,543 L 119,543 L 111,551 L 111,552 L 109,554 L 109,555 L 106,558 L 106,559 L 105,560 L 105,561 L 103,563 L 103,564 L 102,565 L 102,566 L 101,567 L 101,569 L 100,570 L 100,571 L 99,572 L 99,573 L 98,574 L 98,576 L 97,577 L 97,580 L 96,581 L 96,584 L 95,585 L 95,589 L 94,590 L 94,594 L 93,595 L 93,600 L 94,601 L 94,603 L 95,604 L 95,606 L 96,607 L 96,608 L 97,609 L 97,610 L 102,615 L 103,615 L 104,616 L 105,616 L 106,617 L 107,617 L 108,618 L 123,618 L 124,619 L 123,620 L 123,622 L 122,623 L 122,625 L 121,626 L 121,628 L 120,629 L 120,632 L 119,633 L 119,651 L 120,652 L 120,655 L 121,656 L 121,658 L 122,659 L 122,661 L 123,662 L 123,664 L 124,665 L 124,666 L 126,668 L 126,669 L 128,671 L 128,672 L 136,680 L 137,680 L 139,682 L 138,683 L 137,683 L 136,684 L 135,684 L 134,685 L 133,685 L 131,687 L 130,687 L 128,689 L 127,689 L 121,695 L 120,695 L 120,696 L 116,700 L 116,701 L 115,702 L 115,703 L 114,704 L 114,705 L 113,706 L 113,707 L 112,708 L 112,710 L 111,711 L 111,713 L 110,714 L 110,716 L 109,717 L 109,720 L 108,721 L 108,726 L 107,727 L 107,761 L 108,762 L 108,769 L 109,770 L 109,777 L 110,778 L 110,782 L 111,783 L 111,786 L 112,787 L 112,790 L 113,791 L 113,793 L 114,794 L 114,795 L 115,796 L 115,798 L 116,799 L 116,801 L 117,802 L 117,803 L 118,804 L 118,805 L 119,806 L 119,808 L 120,809 L 120,810 L 122,812 L 122,813 L 123,814 L 123,815 L 125,817 L 125,818 L 128,821 L 128,822 L 130,824 L 130,825 L 133,828 L 133,829 L 136,832 L 136,833 L 140,837 L 140,838 L 141,839 L 140,840 L 139,840 L 138,841 L 136,841 L 135,842 L 134,842 L 133,843 L 131,843 L 130,844 L 129,844 L 128,845 L 126,845 L 125,846 L 124,846 L 122,848 L 120,848 L 118,850 L 117,850 L 115,852 L 114,852 L 111,855 L 110,855 L 108,857 L 108,858 L 105,861 L 105,862 L 104,863 L 104,866 L 103,867 L 103,868 L 104,869 L 104,873 L 105,874 L 105,876 L 106,877 L 106,878 L 107,879 L 107,880 L 109,882 L 109,883 L 119,893 L 120,893 L 123,896 L 124,896 L 126,898 L 127,898 L 128,899 L 129,899 L 131,901 L 132,901 L 133,902 L 134,902 L 135,903 L 137,903 L 139,905 L 141,905 L 142,906 L 143,906 L 144,907 L 146,907 L 148,909 L 150,909 L 151,910 L 153,910 L 154,911 L 155,911 L 156,912 L 158,912 L 159,913 L 161,913 L 162,914 L 163,914 L 164,915 L 166,915 L 167,916 L 169,916 L 170,917 L 171,917 L 172,918 L 174,918 L 175,919 L 178,919 L 179,920 L 181,920 L 182,921 L 183,921 L 184,922 L 186,922 L 187,923 L 190,923 L 191,924 L 193,924 L 194,925 L 196,925 L 197,926 L 199,926 L 200,927 L 203,927 L 204,928 L 206,928 L 207,929 L 209,929 L 210,930 L 213,930 L 214,931 L 216,931 L 217,932 L 220,932 L 221,933 L 224,933 L 225,934 L 229,934 L 230,935 L 234,935 L 235,936 L 239,936 L 240,937 L 244,937 L 245,938 L 250,938 L 251,939 L 255,939 L 256,940 L 261,940 L 262,941 L 266,941 L 267,942 L 271,942 L 272,943 L 277,943 L 278,944 L 282,944 L 283,945 L 288,945 L 289,946 L 295,946 L 296,947 L 302,947 L 303,948 L 309,948 L 310,949 L 317,949 L 318,950 L 325,950 L 326,951 L 334,951 L 335,952 L 344,952 L 345,953 L 354,953 L 355,954 L 364,954 L 365,955 L 377,955 L 378,956 L 391,956 L 392,957 L 404,957 L 405,958 L 420,958 L 421,959 L 437,959 L 438,960 L 483,960 L 484,961 L 531,961 L 532,960 L 553,960 L 554,959 L 569,959 L 570,958 L 583,958 L 584,957 L 601,957 L 602,956 L 603,957 L 605,957 L 606,956 L 628,956 L 629,955 L 647,955 L 648,954 L 659,954 L 660,953 L 670,953 L 671,952 L 679,952 L 680,951 L 688,951 L 689,950 L 697,950 L 698,949 L 704,949 L 705,948 L 712,948 L 713,947 L 719,947 L 720,946 L 725,946 L 726,945 L 733,945 L 734,944 L 740,944 L 741,943 L 748,943 L 749,942 L 753,942 L 754,941 L 759,941 L 760,940 L 765,940 L 766,939 L 770,939 L 771,938 L 775,938 L 776,937 L 780,937 L 781,936 L 785,936 L 786,935 L 790,935 L 791,934 L 795,934 L 796,933 L 799,933 L 800,932 L 803,932 L 804,931 L 808,931 L 809,930 L 812,930 L 813,929 L 816,929 L 817,928 L 820,928 L 821,927 L 825,927 L 826,926 L 829,926 L 830,925 L 833,925 L 834,924 L 837,924 L 838,923 L 841,923 L 842,922 L 845,922 L 846,921 L 848,921 L 849,920 L 852,920 L 853,919 L 855,919 L 856,918 L 858,918 L 859,917 L 861,917 L 862,916 L 864,916 L 865,915 L 867,915 L 868,914 L 869,914 L 870,913 L 872,913 L 873,912 L 875,912 L 876,911 L 877,911 L 878,910 L 880,910 L 881,909 L 882,909 L 883,908 L 884,908 L 885,907 L 886,907 L 887,906 L 889,906 L 890,905 L 891,905 L 892,904 L 893,904 L 894,903 L 895,903 L 897,901 L 898,901 L 899,900 L 900,900 L 902,898 L 903,898 L 905,896 L 906,896 L 908,894 L 909,894 L 913,890 L 914,890 L 916,888 L 916,887 L 920,883 L 920,882 L 922,880 L 922,878 L 923,877 L 923,875 L 924,874 L 924,871 L 925,870 L 925,865 L 924,864 L 924,862 L 921,859 L 921,858 L 920,857 L 919,857 L 916,854 L 915,854 L 913,852 L 912,852 L 911,851 L 910,851 L 908,849 L 906,849 L 904,847 L 902,847 L 901,846 L 900,846 L 899,845 L 897,845 L 896,844 L 893,844 L 892,843 L 890,843 L 889,842 L 885,842 L 884,841 L 879,841 L 884,841 L 885,842 L 889,842 L 890,843 L 892,843 L 893,844 L 896,844 L 897,845 L 898,845 L 899,846 L 901,846 L 902,847 L 903,847 L 905,849 L 907,849 L 909,851 L 910,851 L 911,852 L 912,852 L 914,854 L 915,854 L 918,857 L 919,857 L 921,859 L 921,860 L 924,863 L 924,864 L 925,865 L 925,870 L 924,871 L 924,874 L 923,875 L 923,877 L 922,878 L 922,879 L 920,881 L 920,882 L 916,886 L 916,887 L 913,890 L 912,890 L 908,894 L 907,894 L 905,896 L 904,896 L 902,898 L 901,898 L 898,901 L 896,901 L 894,903 L 893,903 L 892,904 L 891,904 L 890,905 L 889,905 L 888,906 L 887,906 L 886,907 L 884,907 L 883,908 L 882,908 L 880,910 L 878,910 L 877,911 L 876,911 L 875,912 L 872,912 L 871,913 L 870,913 L 869,914 L 868,914 L 867,915 L 865,915 L 864,916 L 862,916 L 861,917 L 859,917 L 858,918 L 856,918 L 855,919 L 853,919 L 852,920 L 849,920 L 848,921 L 846,921 L 845,922 L 842,922 L 841,923 L 838,923 L 837,924 L 834,924 L 833,925 L 830,925 L 829,926 L 826,926 L 825,927 L 821,927 L 820,928 L 817,928 L 816,929 L 813,929 L 812,930 L 809,930 L 808,931 L 804,931 L 803,932 L 800,932 L 799,933 L 796,933 L 795,934 L 791,934 L 790,935 L 786,935 L 785,936 L 781,936 L 780,937 L 776,937 L 775,938 L 771,938 L 770,939 L 766,939 L 765,940 L 760,940 L 759,941 L 754,941 L 753,942 L 749,942 L 748,943 L 741,943 L 740,944 L 734,944 L 733,945 L 726,945 L 725,946 L 720,946 L 719,947 L 713,947 L 712,948 L 705,948 L 704,949 L 698,949 L 697,950 L 689,950 L 688,951 L 680,951 L 679,952 L 671,952 L 670,953 L 660,953 L 659,954 L 648,954 L 647,955 L 629,955 L 628,956 L 606,956 L 605,957 L 603,957 L 602,956 L 601,957 L 584,957 L 583,958 L 570,958 L 569,959 L 554,959 L 553,960 L 532,960 L 531,961 L 484,961 L 483,960 L 438,960 L 437,959 L 421,959 L 420,958 L 405,958 L 404,957 L 392,957 L 391,956 L 378,956 L 377,955 L 365,955 L 364,954 L 355,954 L 354,953 L 345,953 L 344,952 L 335,952 L 334,951 L 326,951 L 325,950 L 318,950 L 317,949 L 310,949 L 309,948 L 303,948 L 302,947 L 296,947 L 295,946 L 289,946 L 288,945 L 283,945 L 282,944 L 278,944 L 277,943 L 272,943 L 271,942 L 267,942 L 266,941 L 262,941 L 261,940 L 256,940 L 255,939 L 251,939 L 250,938 L 245,938 L 244,937 L 240,937 L 239,936 L 235,936 L 234,935 L 230,935 L 229,934 L 225,934 L 224,933 L 221,933 L 220,932 L 217,932 L 216,931 L 214,931 L 213,930 L 210,930 L 209,929 L 207,929 L 206,928 L 204,928 L 203,927 L 200,927 L 199,926 L 197,926 L 196,925 L 194,925 L 193,924 L 191,924 L 190,923 L 187,923 L 186,922 L 184,922 L 183,921 L 182,921 L 181,920 L 179,920 L 178,919 L 175,919 L 174,918 L 172,918 L 171,917 L 170,917 L 169,916 L 167,916 L 166,915 L 164,915 L 163,914 L 162,914 L 161,913 L 159,913 L 158,912 L 156,912 L 155,911 L 154,911 L 153,910 L 151,910 L 150,909 L 149,909 L 148,908 L 147,908 L 146,907 L 145,907 L 144,906 L 142,906 L 141,905 L 140,905 L 139,904 L 138,904 L 137,903 L 136,903 L 135,902 L 134,902 L 133,901 L 132,901 L 131,900 L 130,900 L 128,898 L 127,898 L 125,896 L 124,896 L 121,893 L 120,893 L 109,882 L 109,881 L 107,879 L 107,878 L 106,877 L 106,876 L 105,875 L 105,874 L 104,873 L 104,869 L 103,868 L 103,867 L 104,866 L 104,864 L 105,863 L 105,862 L 108,859 L 108,858 L 111,855 L 112,855 L 115,852 L 116,852 L 118,850 L 119,850 L 121,848 L 122,848 L 123,847 L 124,847 L 125,846 L 126,846 L 127,845 L 128,845 L 129,844 L 130,844 L 131,843 L 133,843 L 134,842 L 135,842 L 136,841 L 138,841 L 139,840 L 140,840 L 141,839 L 154,852 L 155,852 L 160,857 L 161,857 L 165,861 L 166,861 L 169,864 L 170,864 L 172,866 L 173,866 L 175,868 L 176,868 L 178,870 L 179,870 L 181,872 L 182,872 L 184,874 L 185,874 L 186,875 L 187,875 L 189,877 L 190,877 L 191,878 L 192,878 L 193,879 L 194,879 L 196,881 L 197,881 L 198,882 L 199,882 L 200,883 L 201,883 L 202,884 L 203,884 L 204,885 L 205,885 L 206,886 L 208,886 L 210,888 L 211,888 L 212,889 L 213,889 L 214,890 L 216,890 L 217,891 L 218,891 L 219,892 L 221,892 L 222,893 L 223,893 L 224,894 L 226,894 L 227,895 L 228,895 L 229,896 L 231,896 L 232,897 L 234,897 L 235,898 L 237,898 L 238,899 L 239,899 L 240,900 L 242,900 L 243,901 L 245,901 L 246,902 L 247,902 L 248,903 L 250,903 L 251,904 L 253,904 L 254,905 L 255,905 L 256,906 L 258,906 L 259,907 L 262,907 L 263,908 L 265,908 L 266,909 L 269,909 L 270,910 L 272,910 L 273,911 L 276,911 L 277,912 L 280,912 L 281,913 L 284,913 L 285,914 L 288,914 L 289,915 L 292,915 L 293,916 L 297,916 L 298,917 L 301,917 L 302,918 L 306,918 L 307,919 L 310,919 L 311,920 L 315,920 L 316,921 L 319,921 L 320,922 L 325,922 L 326,923 L 330,923 L 331,924 L 336,924 L 337,925 L 342,925 L 343,926 L 349,926 L 350,927 L 354,927 L 355,928 L 361,928 L 362,929 L 370,929 L 371,930 L 380,930 L 381,931 L 390,931 L 391,932 L 399,932 L 400,933 L 408,933 L 409,934 L 423,934 L 424,935 L 443,935 L 444,936 L 457,936 L 458,937 L 467,937 L 468,938 L 556,938 L 557,937 L 558,938 L 559,937 L 572,937 L 573,936 L 584,936 L 585,935 L 598,935 L 599,934 L 612,934 L 613,933 L 624,933 L 625,932 L 634,932 L 635,931 L 644,931 L 645,930 L 652,930 L 653,929 L 659,929 L 660,928 L 665,928 L 666,927 L 673,927 L 674,926 L 679,926 L 680,925 L 686,925 L 687,924 L 692,924 L 693,923 L 697,923 L 698,922 L 702,922 L 703,921 L 706,921 L 707,920 L 710,920 L 711,919 L 715,919 L 716,918 L 719,918 L 720,917 L 723,917 L 724,916 L 728,916 L 729,915 L 733,915 L 734,914 L 737,914 L 738,913 L 741,913 L 742,912 L 745,912 L 746,911 L 749,911 L 750,910 L 752,910 L 753,909 L 756,909 L 757,908 L 759,908 L 760,907 L 762,907 L 763,906 L 765,906 L 766,905 L 767,905 L 768,904 L 770,904 L 771,903 L 773,903 L 774,902 L 775,902 L 776,901 L 778,901 L 779,900 L 781,900 L 782,899 L 784,899 L 785,898 L 786,898 L 787,897 L 789,897 L 790,896 L 791,896 L 792,895 L 794,895 L 795,894 L 796,894 L 797,893 L 799,893 L 800,892 L 801,892 L 802,891 L 803,891 L 804,890 L 806,890 L 807,889 L 809,889 L 811,887 L 812,887 L 813,886 L 814,886 L 815,885 L 817,885 L 818,884 L 819,884 L 820,883 L 821,883 L 822,882 L 823,882 L 824,881 L 825,881 L 826,880 L 827,880 L 828,879 L 829,879 L 830,878 L 831,878 L 833,876 L 834,876 L 835,875 L 836,875 L 837,874 L 838,874 L 839,873 L 840,873 L 841,872 L 842,872 L 844,870 L 845,870 L 849,866 L 850,866 L 858,858 L 859,858 L 862,855 L 863,855 L 875,843 L 875,842 L 882,835 L 882,834 L 886,830 L 886,829 L 888,827 L 888,826 L 890,824 L 890,823 L 891,822 L 891,821 L 893,819 L 893,818 L 894,817 L 894,816 L 895,815 L 895,814 L 896,813 L 896,812 L 897,811 L 897,810 L 898,809 L 898,808 L 899,807 L 899,806 L 900,805 L 900,803 L 901,802 L 901,801 L 902,800 L 902,799 L 903,798 L 903,796 L 904,795 L 904,792 L 905,791 L 905,789 L 906,788 L 906,785 L 907,784 L 907,781 L 908,780 L 908,775 L 909,774 L 909,769 L 910,768 L 910,763 L 911,762 L 911,756 L 912,755 L 912,741 L 913,740 L 912,739 L 912,738 L 913,737 L 913,735 L 912,734 L 912,725 L 911,724 L 911,719 L 910,718 L 910,715 L 909,714 L 909,711 L 908,710 L 908,708 L 907,707 L 907,705 L 906,704 L 906,703 L 905,702 L 905,701 L 904,700 L 904,699 L 900,695 L 900,694 L 896,690 L 895,690 L 892,687 L 891,687 L 889,685 L 888,685 L 886,683 L 885,683 L 884,682 L 882,682 L 881,681 L 880,681 L 878,679 L 878,678 L 881,675 L 881,674 L 886,669 L 886,668 L 888,666 L 888,665 L 890,663 L 890,662 L 892,660 L 892,659 L 894,657 L 894,656 L 896,654 L 896,653 L 897,652 L 897,651 L 898,650 L 898,648 L 899,647 L 899,646 L 900,645 L 900,643 L 901,642 L 901,640 L 902,639 L 902,635 L 903,634 L 903,617 L 902,616 L 902,613 L 901,612 L 901,610 L 900,609 L 900,607 L 899,606 L 899,604 L 897,602 L 897,600 L 896,599 L 896,598 L 897,597 L 899,597 L 900,596 L 902,596 L 905,593 L 906,593 L 907,592 L 907,591 L 910,588 L 910,587 L 912,585 L 912,582 L 913,581 L 913,579 L 914,578 L 914,570 L 913,569 L 913,565 L 912,564 L 912,563 L 911,562 L 911,560 L 910,559 L 910,558 L 909,557 L 909,556 L 908,555 L 908,553 L 907,552 L 907,551 L 905,549 L 905,548 L 903,546 L 903,545 L 896,538 L 896,537 L 895,536 L 895,535 L 894,534 L 894,533 L 893,532 L 893,531 L 891,529 L 891,528 L 882,519 L 881,519 L 878,516 L 877,516 L 875,514 L 876,513 L 889,513 L 890,512 L 892,512 L 893,511 L 895,511 L 896,510 L 897,510 L 898,509 L 899,509 L 900,508 L 901,508 L 902,507 L 903,507 L 905,505 L 906,505 L 915,496 L 915,495 L 917,493 L 917,492 L 918,491 L 918,490 L 919,489 L 919,487 L 920,486 L 920,485 L 921,484 L 921,482 L 922,481 L 922,478 L 923,477 L 923,460 L 922,459 L 922,455 L 921,454 L 921,451 L 920,450 L 920,448 L 922,446 L 924,446 L 925,445 L 927,445 L 928,444 L 929,444 L 930,443 L 932,443 L 933,442 L 934,442 L 936,440 L 937,440 L 940,437 L 941,437 L 951,427 L 951,426 L 953,424 L 953,422 L 954,421 L 954,420 L 955,419 L 955,417 L 956,416 L 956,413 L 957,412 L 957,397 L 956,396 L 956,393 L 955,392 L 955,390 L 954,389 L 954,388 L 953,387 L 953,386 L 952,385 L 952,383 L 950,381 L 950,380 L 947,377 L 947,376 L 944,373 L 943,373 L 940,370 L 939,370 L 938,369 L 937,369 L 935,367 L 934,367 L 933,366 L 932,366 L 931,365 L 930,365 L 929,364 L 927,364 L 926,363 L 925,363 L 924,362 L 922,362 L 921,361 L 919,361 L 918,360 L 916,360 L 915,359 L 912,359 L 911,358 L 908,358 L 907,357 L 903,357 L 902,356 L 896,356 L 895,355 L 891,355 L 890,354 L 890,353 L 891,352 L 891,350 L 892,349 L 892,345 L 893,344 L 893,339 L 894,338 L 894,331 L 895,330 L 895,316 L 894,315 L 894,308 L 893,307 L 893,302 L 892,301 L 892,297 L 891,296 L 891,293 L 890,292 L 890,289 L 889,288 L 889,285 L 888,284 L 888,282 L 887,281 L 887,278 L 886,277 L 886,275 L 885,274 L 885,273 L 884,272 L 884,270 L 883,269 L 883,267 L 882,266 L 882,265 L 880,263 L 880,262 L 879,261 L 879,260 L 878,259 L 878,258 L 877,257 L 877,256 L 876,255 L 876,254 L 875,253 L 875,252 L 874,251 L 874,250 L 873,249 L 873,248 L 872,247 L 872,246 L 871,245 L 871,244 L 870,243 L 870,242 L 869,241 L 869,240 L 867,238 L 867,237 L 865,235 L 865,234 L 863,232 L 863,231 L 861,229 L 861,228 L 859,226 L 859,225 L 857,223 L 857,222 L 852,217 L 852,216 L 848,212 L 848,211 L 842,205 L 842,204 L 833,195 L 833,194 L 821,182 L 820,182 L 814,176 L 813,176 L 808,171 L 807,171 L 803,167 L 802,167 L 798,163 L 797,163 L 793,159 L 792,159 L 789,156 L 788,156 L 785,153 L 784,153 L 782,151 L 781,151 L 779,149 L 778,149 L 776,147 L 775,147 L 773,145 L 772,145 L 770,143 L 769,143 L 768,142 L 767,142 L 765,140 L 764,140 L 763,139 L 762,139 L 761,138 L 760,138 L 758,136 L 757,136 L 756,135 L 755,135 L 754,134 L 753,134 L 752,133 L 751,133 L 750,132 L 749,132 L 748,131 L 746,131 L 744,129 L 743,129 L 741,127 L 740,127 L 739,126 L 738,126 L 737,125 L 736,125 L 735,124 L 733,124 L 732,123 L 731,123 L 730,122 L 729,122 L 728,121 L 727,121 L 726,120 L 724,120 L 723,119 L 722,119 L 721,118 L 720,118 L 719,117 L 717,117 L 716,116 L 715,116 L 714,115 L 712,115 L 711,114 L 710,114 L 709,113 L 707,113 L 706,112 L 705,112 L 704,111 L 702,111 L 701,110 L 699,110 L 698,109 L 696,109 L 695,108 L 694,108 L 693,107 L 691,107 L 690,106 L 688,106 L 687,105 L 685,105 L 684,104 L 682,104 L 681,103 L 679,103 L 678,102 L 676,102 L 675,101 L 673,101 L 672,100 L 669,100 L 668,99 L 666,99 L 665,98 L 662,98 L 661,97 L 659,97 L 658,96 L 655,96 L 654,95 L 651,95 L 650,94 L 648,94 L 647,93 L 644,93 L 643,92 L 639,92 L 638,91 L 635,91 L 634,90 L 630,90 L 629,89 L 625,89 L 624,88 L 620,88 L 619,87 L 614,87 L 613,86 L 607,86 L 606,85 L 601,85 L 600,84 L 594,84 L 593,83 L 587,83 L 586,82 L 578,82 L 577,81 L 570,81 L 569,80 L 559,80 L 558,79 L 540,79 L 539,78 Z" fill="none" stroke="black" stroke-width="1" /></svg>